<?xml version="1.0" standalone="no"?>
<!DOCTYPE svg PUBLIC "-//W3C//DTD SVG 1.1//EN" "http://www.w3.org/Graphics/SVG/1.1/DTD/svg11.dtd" >
<svg xmlns="http://www.w3.org/2000/svg">
<metadata>
This is a custom SVG font generated by IcoMoon.
<iconset grid="25"></iconset>
</metadata>
<defs>
<font id="myfont" horiz-adv-x="800" >
<font-face units-per-em="800" ascent="768" descent="-32" />
<missing-glyph horiz-adv-x="800" />
<glyph class="hidden" unicode="&#xf000;" d="M0,768L 800 -32L0 -32 z" horiz-adv-x="0" />
<glyph unicode="&#xe000;" d="M 700-32l-600,0 q-20.313,0 -35.156,14.453t-14.844,35.547l0,700 q0,20.313 14.844,35.156t 35.156,14.844l 600,0 q 21.094,0 35.547-14.844t 14.453-35.156l0-700 q0-21.094 -14.453-35.547t-35.547-14.453zM 375,118l 50,0 q 10.156,0 17.578,7.422t 7.422,17.578t-7.422,17.578t-17.578,7.422l-50,0 q-10.156,0 -17.578-7.422t-7.422-17.578t 7.422-17.578t 17.578-7.422zM 175,118l 100,0 
q 10.156,0 17.578,7.422t 7.422,17.578t-7.422,17.578t-17.578,7.422l-100,0 q-10.156,0 -17.578-7.422t-7.422-17.578t 7.422-17.578t 17.578-7.422zM 175,268l 250,0 q 10.156,0 17.578,7.422t 7.422,17.578t-7.422,17.578t-17.578,7.422l-250,0 q-10.156,0 -17.578-7.422t-7.422-17.578t 7.422-17.578t 17.578-7.422zM 175,418l 100,0 q 10.156,0 17.578,7.422t 7.422,17.578t-7.422,17.578
t-17.578,7.422l-100,0 q-10.156,0 -17.578-7.422t-7.422-17.578t 7.422-17.578t 17.578-7.422zM 375,618l-200,0 q-10.156,0 -17.578-7.422t-7.422-17.578t 7.422-17.578t 17.578-7.422l 200,0 q 10.156,0 17.578,7.422t 7.422,17.578t-7.422,17.578t-17.578,7.422zM 625,618l-150,0 q-10.156,0 -17.578-7.422t-7.422-17.578t 7.422-17.578t 17.578-7.422l 150,0 q 10.156,0 17.578,7.422
t 7.422,17.578t-7.422,17.578t-17.578,7.422zM 625,468l-250,0 q-10.156,0 -17.578-7.422t-7.422-17.578t 7.422-17.578t 17.578-7.422l 250,0 q 10.156,0 17.578,7.422t 7.422,17.578t-7.422,17.578t-17.578,7.422zM 625,318l-100,0 q-10.156,0 -17.578-7.422t-7.422-17.578t 7.422-17.578t 17.578-7.422l 100,0 q 10.156,0 17.578,7.422t 7.422,17.578t-7.422,17.578t-17.578,7.422z
M 625,168l-100,0 q-10.156,0 -17.578-7.422t-7.422-17.578t 7.422-17.578t 17.578-7.422l 100,0 q 10.156,0 17.578,7.422t 7.422,17.578t-7.422,17.578t-17.578,7.422z" data-tags="document" />
<glyph unicode="&#xe001;" d="M 672.656-26.531l-72.656,194.531l-17.969,0 q-6.25-17.969 -18.75-51.563t-17.969-48.438l-95.313,0 l0-50 q0-21.094 -14.844-35.547t-35.547-14.453t-35.156,14.844t-14.453,35.156l0,50 l-96.094,0 q-4.688,14.844 -17.188,48.438t-18.75,51.563l-17.969,0 l-72.656-194.531q-27.344,14.063 -27.344,44.531l0,150 q0,21.094 39.844,60.547t 60.156,39.453q0,106.25 25.391,208.594t 71.484,180.469t 103.125,110.938q 57.031-32.813 103.125-110.938t 71.484-180.469t 25.391-208.594
q 20.313,0 60.156-39.453t 39.844-60.547l0-150 q0-30.469 -27.344-44.531zM 400,568q-41.406,0 -70.703-29.297t-29.297-70.703t 29.297-70.703t 70.703-29.297t 70.703,29.297t 29.297,70.703t-29.297,70.703t-70.703,29.297z" data-tags="rocket" />
<glyph unicode="&#xe002;" d="M 600,368.781q-49.219-52.344 -74.609-94.922t-25.391-80.859l0,0 q0-10.156 -7.422-17.578t-17.578-7.422l-150,0 q-10.156,0 -17.578,7.422t-7.422,17.578l0,0 q0,38.281 -25.391,80.859t-74.609,94.922q-50,66.406 -50,149.219q0,67.969 33.594,125.391t 91.016,91.016t 125.391,33.594t 125.391-33.594t 91.016-91.016t 33.594-125.391q0-82.813 -50-149.219zM 325,118l 150,0 
q 10.156,0 17.578-7.422t 7.422-17.578t-7.422-17.578t-17.578-7.422l-150,0 q-10.156,0 -17.578,7.422t-7.422,17.578t 7.422,17.578t 17.578,7.422zM 400-32q-41.406,0 -70.703,14.844t-29.297,35.156l 200,0 q0-20.313 -29.297-35.156t-70.703-14.844z" data-tags="lightbulb" />
<glyph unicode="&#xe003;" d="M 450,318q-100,72.656 -100,174.219q0,39.063 13.281,75.781l-14.063,14.063l-208.594-208.594l 160.938-305.469l 198.438,0 q 20.313,0 35.156-14.844t 14.844-35.547t-14.844-35.156t-35.156-14.453l-400,0 q-20.313,0 -35.156,14.453t-14.844,35.156t 14.844,35.547t 35.156,14.844l 145.313,0 l-142.188,267.969l-10.156-10.156q-7.031-7.813 -17.578-7.813t-17.969,7.422t-7.422,17.969t 7.031,17.578l 21.875,21.875l-25,47.656q-5.469,8.594 -2.734,18.75t 11.719,15.625t 18.75,2.734
t 15.234-12.109l 18.75-35.938l 200,199.219q-18.75,28.125 -15.625,62.5t 27.344,58.594q 28.125,28.125 67.969,28.125t 67.969-28.125l 35.938-35.938q 37.5,13.281 75.781,13.281q 102.344,0 175-100z" data-tags="desklamp" />
<glyph unicode="&#xe004;" d="M 762.5,177.375q 33.594-49.219 44.141-97.266t-6.641-80.078t-60.938-32.031l-657.813,0 q-43.75,0 -60.938,32.031t-6.641,80.078t 44.141,97.266l 202.344,256.25l0,234.375 l-50,0 q-20.313,0 -35.156,14.453t-14.844,35.156t 14.844,35.547t 35.156,14.844l 400,0 q 20.313,0 35.156-14.844t 14.844-35.547t-14.844-35.156t-35.156-14.453l-50,0 l0-234.375 zM 460.156,418l0,250 l-100,0 l0-250 l-116.406-150l 332.813,0 z" data-tags="flaskfull" />
<glyph unicode="&#xe005;" d="M 299.917,368c0-55.183, 44.817-100, 100-100s 100,44.817, 100,100l0,0.833 
	c-10.683-10.833-25.333-17.5-41.667-17.5c-32.183,0-58.333,26.167-58.333,58.333c0,23.167, 13.65,43.333, 33.167,52.667c-10.333,3.667-21.5,5.667-33.167,5.667
	C 344.75,468, 299.917,423.167, 299.917,368z M 777.583,424.833C 715.583,503.667, 564.583,634.667, 400.083,634.667c-164.667,0-315.817-131-377.833-209.833
	c-14-18-21.667-37.5-22.167-56.833c 0.5-19.333, 8.167-38.833, 22.167-56.833C 84.267,232.317, 235.25,101.333, 399.917,101.333s 315.65,130.983, 377.667,209.833
	c 14.167,18, 21.833,37.5, 22.333,56.833C 799.417,387.333, 791.75,406.833, 777.583,424.833z M 399.917,201.333c-92,0-166.667,74.667-166.667,166.667c0,92, 74.667,166.667, 166.667,166.667
	s 166.667-74.667, 166.667-166.667C 566.583,276, 491.917,201.333, 399.917,201.333z" data-tags="eye, views" />
<glyph unicode="&#xe006;" d="M 400-32q-81.25,0 -155.469,31.641t-127.734,85.156t-85.156,127.734t-31.641,155.469t 31.641,155.469t 85.156,127.734t 127.734,85.156t 155.469,31.641t 155.469-31.641t 127.734-85.156t 85.156-127.734t 31.641-155.469t-31.641-155.469t-85.156-127.734t-127.734-85.156t-155.469-31.641zM 400,668q-81.25,0 -150.391-40.234t-109.375-109.375t-40.234-150.391t 40.234-150.391
t 109.375-109.375t 150.391-40.234t 150.391,40.234t 109.375,109.375t 40.234,150.391t-40.234,150.391t-109.375,109.375t-150.391,40.234zM 448.438,252.375q-3.125-13.281 -10.938-21.094q-14.844-14.844 -37.5-12.5q-21.875-2.344 -36.719,12.5q-7.813,7.813 -11.719,21.875l-138.281,138.281q-13.281,13.281 -13.281,32.031t 13.281,32.031t 32.031,13.281t 32.031-13.281l 122.656-123.438l 123.438,123.438q 13.281,13.281 32.031,13.281t 32.031-13.281t 13.281-32.031t-13.281-32.031z" data-tags="circledown" />
<glyph unicode="&#xe007;" d="M 400-32q-81.25,0 -155.469,31.641t-127.734,85.156t-85.156,127.734t-31.641,155.469t 31.641,155.469t 85.156,127.734t 127.734,85.156t 155.469,31.641t 155.469-31.641t 127.734-85.156t 85.156-127.734t 31.641-155.469t-31.641-155.469t-85.156-127.734t-127.734-85.156t-155.469-31.641zM 400,668q-81.25,0 -150.391-40.234t-109.375-109.375t-40.234-150.391t 40.234-150.391
t 109.375-109.375t 150.391-40.234t 150.391,40.234t 109.375,109.375t 40.234,150.391t-40.234,150.391t-109.375,109.375t-150.391,40.234zM 523.438,280.5l-123.438,122.656l-122.656-122.656q-13.281-13.281 -32.031-13.281t-32.031,13.281t-13.281,32.031t 13.281,32.031l 138.281,138.281q 3.906,14.063 11.719,21.875q 14.844,14.844 36.719,12.5q 22.656,2.344 37.5-12.5q 7.813-7.813 10.938-21.094l 139.063-139.063q 13.281-13.281 13.281-32.031t-13.281-32.031t-32.031-13.281t-32.031,13.281z
" data-tags="circleup" />
<glyph unicode="&#xe008;" d="M 400-32q-81.25,0 -155.469,31.641t-127.734,85.156t-85.156,127.734t-31.641,155.469t 31.641,155.469t 85.156,127.734t 127.734,85.156t 155.469,31.641t 155.469-31.641t 127.734-85.156t 85.156-127.734t 31.641-155.469t-31.641-155.469t-85.156-127.734t-127.734-85.156t-155.469-31.641zM 400,668q-81.25,0 -150.391-40.234t-109.375-109.375t-40.234-150.391t 40.234-150.391
t 109.375-109.375t 150.391-40.234t 150.391,40.234t 109.375,109.375t 40.234,150.391t-40.234,150.391t-109.375,109.375t-150.391,40.234zM 536.719,331.281q-7.813-7.813 -21.875-11.719l-138.281-138.281q-13.281-13.281 -32.031-13.281t-32.031,13.281t-13.281,32.031t 13.281,32.031l 123.438,122.656l-123.438,123.438q-13.281,13.281 -13.281,32.031t 13.281,32.031t 32.031,13.281t 32.031-13.281l 139.063-139.063q 13.281-3.125 21.094-10.938q 14.844-14.844 12.5-37.5
q 2.344-21.875 -12.5-36.719z" data-tags="circleright" />
<glyph unicode="&#xe009;" d="M 400-32q-81.25,0 -155.469,31.641t-127.734,85.156t-85.156,127.734t-31.641,155.469t 31.641,155.469t 85.156,127.734t 127.734,85.156t 155.469,31.641t 155.469-31.641t 127.734-85.156t 85.156-127.734t 31.641-155.469t-31.641-155.469t-85.156-127.734t-127.734-85.156t-155.469-31.641zM 400,668q-81.25,0 -150.391-40.234t-109.375-109.375t-40.234-150.391t 40.234-150.391
t 109.375-109.375t 150.391-40.234t 150.391,40.234t 109.375,109.375t 40.234,150.391t-40.234,150.391t-109.375,109.375t-150.391,40.234zM 487.5,181.281q-13.281-13.281 -32.031-13.281t-32.031,13.281l-138.281,138.281q-14.063,3.906 -21.875,11.719q-14.844,14.844 -12.5,36.719q-2.344,22.656 12.5,37.5q 7.813,7.813 21.094,10.938l 139.063,139.063q 13.281,13.281 32.031,13.281t 32.031-13.281t 13.281-32.031t-13.281-32.031l-122.656-123.438l 122.656-122.656q 13.281-13.281 13.281-32.031
t-13.281-32.031z" data-tags="circleleft" />
<glyph unicode="&#xe00a;" d="M 700,268l-600,0 q-41.406,0 -70.703,29.297t-29.297,70.703t 29.297,70.703t 70.703,29.297l 600,0 q 41.406,0 70.703-29.297t 29.297-70.703t-29.297-70.703t-70.703-29.297zM 700,568l-600,0 q-41.406,0 -70.703,29.297t-29.297,70.703t 29.297,70.703t 70.703,29.297l 600,0 q 41.406,0 70.703-29.297t 29.297-70.703t-29.297-70.703t-70.703-29.297zM 100,168l 600,0 
q 41.406,0 70.703-29.297t 29.297-70.703t-29.297-70.703t-70.703-29.297l-600,0 q-41.406,0 -70.703,29.297t-29.297,70.703t 29.297,70.703t 70.703,29.297z" data-tags="menu" />
<glyph unicode="&#xe00b;" d="M 400-32q-81.25,0 -155.469,31.641t-127.734,85.156t-85.156,127.734t-31.641,155.469t 31.641,155.469t 85.156,127.734t 127.734,85.547t 155.469,32.031t 155.469-32.031t 127.734-85.547t 85.156-127.734t 31.641-155.469t-31.641-155.469t-85.156-127.734t-127.734-85.156t-155.469-31.641zM 400,668q-81.25,0 -150.391-39.844t-109.375-108.984t-40.234-150.781t 40.234-150.781t 109.375-109.375
t 150.391-40.234t 150.391,40.234t 109.375,109.375t 40.234,150.781t-40.234,150.781t-109.375,108.984t-150.391,39.844zM 550,493l-102.344-138.281q-3.906-15.625 -17.188-26.172t-30.469-10.547q-16.406,0 -29.688,10.156t-17.969,25l-152.344,189.844l0,0.781 l0,24.219 l 25,0 l 175.781-141.406l 124.219,91.406l0,0 l 25,0 l0-25 l0,0 z" data-tags="clock" />
<glyph unicode="&#xe00c;" d="M 400-32q-108.594,0 -200.781,53.516t-145.703,145.703t-53.516,200.781t 53.516,200.781t 145.703,145.703t 200.781,53.516t 200.781-53.516t 145.703-145.703t 53.516-200.781t-53.516-200.781t-145.703-145.703t-200.781-53.516zM 600,418l-150,0 l0,200 q0,21.094 -14.844,35.547t-35.547,14.453t-35.156-14.453t-14.453-35.547l0-250 q0-21.094 14.453-35.547t 35.547-14.453l 200,0 
q 20.313,0 35.156,14.844t 14.844,35.547t-14.453,35.156t-35.547,14.453z" data-tags="clock2" />
<glyph unicode="&#xe00d;" d="M 784.766,334.016q-15.234-15.234 -36.719-15.234t-36.328,14.844l-11.719,11.719l0-327.344 q0-20.313 -14.453-35.156t-35.547-14.844l-500,0 q-21.094,0 -35.547,14.844t-14.453,35.156l0,327.344 l-11.719-11.719q-14.844-14.844 -36.328-14.844t-36.719,15.234t-15.234,36.719t 14.844,36.328l 346.875,346.875q 12.5,12.5 30.078,14.453t 32.422-7.422q 6.25,0 14.063-7.031l 346.875-346.875q 14.844-14.844 14.844-36.328t-15.234-36.719z
M 600,445.344l-200,200l-200-200l0-377.344 l 400,0 l0,377.344 z" data-tags="home2" />
<glyph unicode="&#xe00e;" d="M 784.766,334.016q-15.234-15.234 -36.719-15.234t-36.328,14.844l-11.719,11.719l0-327.344 q0-20.313 -14.453-35.156t-35.547-14.844l-150,0 l0,225 q0,10.156 -7.422,17.578t-17.578,7.422l-150,0 q-10.156,0 -17.578-7.422t-7.422-17.578l0-225 l-150,0 q-21.094,0 -35.547,14.844t-14.453,35.156l0,327.344 l-11.719-11.719q-14.844-14.844 -36.328-14.844t-36.719,15.234t-15.234,36.719t 14.844,36.328l 346.875,346.875
q 15.625,15.625 38.281,14.844q 22.656,0.781 38.281-14.844l 346.875-346.875q 14.844-14.844 14.844-36.328t-15.234-36.719z" data-tags="home" />
<glyph unicode="&#xe00f;" d="M 625,317.219l-339.063-332.813q-16.406-16.406 -39.844-16.406t-39.844,16.406l-39.844,39.844q-16.406,16.406 -16.406,39.844t 16.406,39.844l 264.063,264.063l-264.063,264.063q-16.406,16.406 -16.406,39.844t 16.406,39.844l 39.844,39.844q 16.406,16.406 39.844,16.406t 39.844-16.406l 339.063-334.375q 25-25 25-49.609t-25-50.391z" data-tags="uniF488" />
<glyph unicode="&#xe010;" d="M 175,317.219l 339.063-332.813q 16.406-16.406 39.844-16.406t 39.844,16.406l 39.844,39.844q 16.406,16.406 16.406,39.844t-16.406,39.844l-264.063,264.063l 264.063,264.063q 16.406,16.406 16.406,39.844t-16.406,39.844l-39.844,39.844q-16.406,16.406 -39.844,16.406t-39.844-16.406l-339.063-334.375q-25-25 -25-50t 25-50z" data-tags="uniF489" />
<glyph unicode="&#xe011;" d="M 450.781,593l 332.813-339.063q 16.406-16.406 16.406-39.844t-16.406-39.844l-39.844-39.844q-16.406-16.406 -39.844-16.406t-39.844,16.406l-264.063,264.063l-264.063-264.063q-16.406-16.406 -39.844-16.406t-39.844,16.406l-39.844,39.844q-16.406,16.406 -16.406,39.844t 16.406,39.844l 334.375,339.063q 25,25 50,25t 50-25z" data-tags="uniF48A" />
<glyph unicode="&#xe012;" d="M 450.781,143l 332.813,339.063q 16.406,16.406 16.406,39.844t-16.406,39.844l-39.844,39.844q-16.406,16.406 -39.844,16.406t-39.844-16.406l-264.063-264.063l-264.063,264.063q-16.406,16.406 -39.844,16.406t-39.844-16.406l-39.844-39.844q-16.406-16.406 -16.406-39.844t 16.406-39.844l 334.375-339.063q 25-25 50-25t 50,25z" data-tags="uniF48B" />
<glyph unicode="&#xe013;" d="M 400-32q-81.25,0 -155.469,31.641t-127.734,85.156t-85.156,127.734t-31.641,155.469t 31.641,155.469t 85.156,127.734t 127.734,85.156t 155.469,31.641t 155.469-31.641t 127.734-85.156t 85.156-127.734t 31.641-155.469t-31.641-155.469t-85.156-127.734t-127.734-85.156t-155.469-31.641zM 600,418l-150,0 l0,150 q0,20.313 -14.844,35.156t-35.547,14.844t-35.156-14.844t-14.453-35.156l0-150 l-150,0 
q-21.094,0 -35.547-14.844t-14.453-35.547t 14.453-35.156t 35.547-14.453l 150,0 l0-150 q0-21.094 14.453-35.547t 35.156-14.453t 35.547,14.453t 14.844,35.547l0,150 l 150,0 q 21.094,0 35.547,14.453t 14.453,35.156t-14.844,35.547t-35.156,14.844z" data-tags="circleadd" />
<glyph unicode="&#xe014;" d="M 400-32q-81.25,0 -155.469,31.641t-127.734,85.156t-85.156,127.734t-31.641,155.469t 31.641,155.469t 85.156,127.734t 127.734,85.156t 155.469,31.641t 155.469-31.641t 127.734-85.156t 85.156-127.734t 31.641-155.469t-31.641-155.469t-85.156-127.734t-127.734-85.156t-155.469-31.641zM 584.375,479.719q 15.625,14.844 15.625,36.719t-15.234,37.109t-37.109,15.234t-36.719-15.625l-111.719-110.938l-110.938,110.938
q-14.844,15.625 -36.719,15.625t-37.109-15.234t-15.234-37.109t 15.625-36.719l 110.938-111.719l-110.938-110.938q-15.625-14.844 -15.625-36.719t 15.234-37.109t 37.109-15.234t 36.719,15.625l 110.938,110.938l 111.719-110.938q 14.844-15.625 36.719-15.625t 37.109,15.234t 15.234,37.109t-15.625,36.719l-110.938,110.938z" data-tags="circledelete" />
<glyph unicode="&#xe015;" d="M 400-32q-81.25,0 -155.469,31.641t-127.734,85.156t-85.156,127.734t-31.641,155.469t 31.641,155.469t 85.156,127.734t 127.734,85.156t 155.469,31.641t 155.469-31.641t 127.734-85.156t 85.156-127.734t 31.641-155.469t-31.641-155.469t-85.156-127.734t-127.734-85.156t-155.469-31.641zM 634.766,503.547q-15.234,15.234 -37.109,15.234t-36.719-15.625l-211.719-210.938l-110.938,110.938
q-14.844,15.625 -36.719,15.625t-37.109-15.234t-15.234-37.109t 15.625-36.719l 146.094-146.094q 15.625-16.406 39.063-15.625q 22.656-0.781 38.281,15.625l 246.094,246.094q 15.625,14.844 15.625,36.719t-15.234,37.109z" data-tags="circleselect" />
<glyph unicode="&#xe016;" d="M 750,18l-700,0 q-20.313,0 -35.156,14.844t-14.844,35.156l0,500 q0,21.094 14.453,35.547t 35.547,14.453l 50,0 l0-50 q0-50.781 27.734-75.391t 72.266-24.609q 43.75,0 71.875,25.781t 28.125,74.219l0,50 l 200,0 l0-50 q0-50.781 27.734-75.391t 72.266-24.609t 72.266,24.609t 27.734,75.391l0,50 l 50,0 q 21.094,0 35.547-14.453t 14.453-35.547l0-500 q0-21.094 -14.453-35.547t-35.547-14.453zM 300,163.312
l0,41.406 q 50,28.906 50,131.25q0,40.625 -28.125,61.328t-71.875,20.703t-71.875-20.703t-28.125-61.328q0-97.656 50-129.688l0-42.969 q-43.75-8.594 -71.484-28.906t-28.516-45.313q0-21.094 150-21.094t 150,21.094q-0.781,25 -28.516,45.313t-71.484,28.906zM 725,368l-200,0 q-10.156,0 -17.578-7.422t-7.422-17.578t 7.422-17.578t 17.578-7.422l 200,0 q 10.156,0 17.578,7.422t 7.422,17.578t-7.422,17.578
t-17.578,7.422zM 500,243q0-10.156 7.422-17.578t 17.578-7.422l 100,0 q 10.156,0 17.578,7.422t 7.422,17.578t-7.422,17.578t-17.578,7.422l-100,0 q-10.156,0 -17.578-7.422t-7.422-17.578zM 725,168l-200,0 q-10.156,0 -17.578-7.422t-7.422-17.578t 7.422-17.578t 17.578-7.422l 200,0 q 10.156,0 17.578,7.422t 7.422,17.578t-7.422,17.578t-17.578,7.422zM 600,518
q-20.313,0 -35.156,14.844t-14.844,35.156l0,100 q0,21.094 14.453,35.547t 35.547,14.453t 35.547-14.453t 14.453-35.547l0-100 q0-21.094 -14.453-35.547t-35.547-14.453zM 200,518q-20.313,0 -35.156,14.844t-14.844,35.156l0,100 q0,21.094 14.453,35.547t 35.547,14.453t 35.547-14.453t 14.453-35.547l0-100 q0-21.094 -14.453-35.547t-35.547-14.453z" data-tags="businesscard2" />
<glyph unicode="&#xe017;" d="M 400-32q-81.25,0 -155.469,31.641t-127.734,85.156t-85.156,127.734t-31.641,155.469t 31.641,155.469t 85.156,127.734t 127.734,85.547t 155.469,32.031t 155.469-32.031t 127.734-85.547t 85.156-127.734t 31.641-155.469t-31.641-155.469t-85.156-127.734t-127.734-85.156t-155.469-31.641zM 100,368q0-81.25 40.234-150.391t 109.375-109.375t 150.391-40.234q 95.313,0 173.438,55.469
l-417.969,417.969q-55.469-78.125 -55.469-173.438zM 400,668q-94.531,0 -172.656-54.688l 417.969-417.969q 54.688,78.125 54.688,172.656q0,82.031 -40.234,151.172t-109.375,108.984t-150.391,39.844z" data-tags="forbidden" />
<glyph unicode="&#xe018;" d="M 400-32q-81.25,0 -155.469,31.641t-127.734,85.156t-85.156,127.734t-31.641,155.469t 31.641,155.078t 85.156,127.344t 127.734,85.156t 155.469,31.641t 155.469-31.641t 127.734-85.156t 85.156-127.344t 31.641-155.078t-31.641-155.469t-85.156-127.734t-127.734-85.156t-155.469-31.641zM 573.438,123.469l-173.438,173.438l-173.438-173.438q 78.125-55.469 173.438-55.469t 173.438,55.469zM 100,368
q0-95.313 54.688-172.656l 173.438,173.438l-172.656,172.656q-55.469-78.125 -55.469-173.438zM 227.344,612.531l 172.656-171.875l 172.656,171.875q-78.125,55.469 -172.656,55.469t-172.656-55.469zM 644.531,541.437l-172.656-172.656l 173.438-173.438q 54.688,77.344 54.688,172.656t-55.469,173.438z" data-tags="forbidden2" />
<glyph unicode="&#xe019;" d="M 699.219-32l-599.219,0 q-21.094,0 -35.547,14.453t-14.453,35.547l0,699.219 q0,21.094 14.453,35.547t 35.547,14.453l 350,0 l0-199.219 l-275,0 q-10.156,0 -17.578-7.031t-7.422-17.969l0-50 q0-10.156 7.422-17.578t 17.578-7.422l 574.219-0.781l0-0.781 l0-448.438 q0-21.094 -14.453-35.547t-35.547-14.453zM 674.219,343q0,10.938 -7.031,17.969t-17.188,7.031l-475,0 q-10.156,0 -17.578-7.031t-7.422-17.969l0-50 
q0-10.156 7.422-17.578t 17.578-7.422l 475,0 q 10.156,0 17.188,7.422t 7.031,17.578l0,50 zM 674.219,143.781q0,10.156 -7.031,17.578t-17.188,7.422l-475,0 q-10.156,0 -17.578-7.422t-7.422-17.578l0-50 q0-10.938 7.422-17.969t 17.578-7.031l 475,0 q 10.156,0 17.188,7.031t 7.031,17.969l0,50 zM 500,768q 20.313,0 34.375-14.063l 200-200.781q 14.844-14.844 14.844-35.938l-249.219,0 l0,250.781 z" data-tags="mailinglists" />
<glyph unicode="&#xe01a;" d="M 650,168l-225,0 q-10.156,0 -17.578-7.422t-7.422-17.578t 7.422-17.578t 17.578-7.422l 150,0 q 10.156,0 17.578-7.422t 7.422-17.578l0-25 q0-41.406 -29.297-70.703t-70.703-29.297l-150,0 q-41.406,0 -70.703,29.297t-29.297,70.703l0,175 q0,41.406 16.797,58.203t 58.203,16.797l 200,0 q 41.406,0 83.203,41.797t 41.797,83.203l0,125 l 50,0 q 41.406,0 70.703-29.297t 29.297-70.703
l0-150 q0-57.031 -46.484-103.516t-103.516-46.484zM 450,30.5q0-5.469 3.516-8.984t 8.984-3.516l 25,0 q 5.469,0 8.984,3.516t 3.516,8.984l0,25 q0,5.469 -3.516,8.984t-8.984,3.516l-25,0 q-5.469,0 -8.984-3.516t-3.516-8.984l0-25 zM 500,368l-200,0 q-41.406,0 -70.703-29.297t-29.297-70.703l0-100 l-100,0 q-41.406,0 -70.703,29.297t-29.297,70.703l0,150 
q0,57.031 46.484,103.516t 103.516,46.484l 225,0 q 10.156,0 17.578,7.422t 7.422,17.578t-7.422,17.578t-17.578,7.422l-150,0 q-10.156,0 -17.578,7.422t-7.422,17.578l0,25 q0,41.406 29.297,70.703t 70.703,29.297l 200,0 q 41.406,0 70.703-29.297t 29.297-70.703l0-200 q0-41.406 -29.297-70.703t-70.703-29.297zM 350,705.5q0,5.469 -3.516,8.984t-8.984,3.516l-25,0 q-5.469,0 -8.984-3.516
t-3.516-8.984l0-25 q0-5.469 3.516-8.984t 8.984-3.516l 25,0 q 5.469,0 8.984,3.516t 3.516,8.984l0,25 z" data-tags="python" />
<glyph unicode="&#xe01b;" d="M 750,68l-700,0 q-20.313,0 -35.156,14.844t-14.844,35.156l0,500 q0,20.313 14.844,35.156t 35.156,14.844l 700,0 q 20.313,0 35.156-14.844t 14.844-35.156l0-500 q0-21.094 -14.844-35.547t-35.156-14.453zM 275,288.312l0,13.281 q 75,29.688 75,166.406q0,49.219 -34.766,74.609t-90.234,25.391t-90.234-25.391t-34.766-74.609q0-132.813 75-165.625l0-14.063 q-54.688-9.375 -89.453-35.156t-35.547-58.594q0-9.375 16.797-15.234
t 49.219-8.203t 53.516-2.734t 55.469-0.391t 55.469,0.391t 53.516,2.734t 49.219,8.203t 16.797,15.234q-0.781,32.813 -35.938,58.594t-89.063,35.156zM 725,568l-200,0 q-10.156,0 -17.578-7.422t-7.422-17.578t 7.422-17.578t 17.578-7.422l 200,0 q 10.156,0 17.578,7.422t 7.422,17.578t-7.422,17.578t-17.578,7.422zM 500,393q0-10.156 7.422-17.578t 17.578-7.422l 100,0 q 10.156,0 17.578,7.422t 7.422,17.578
t-7.422,17.578t-17.578,7.422l-100,0 q-10.156,0 -17.578-7.422t-7.422-17.578zM 725,268l-200,0 q-10.156,0 -17.578-7.422t-7.422-17.578t 7.422-17.578t 17.578-7.422l 200,0 q 10.156,0 17.578,7.422t 7.422,17.578t-7.422,17.578t-17.578,7.422z" data-tags="contact" />
<glyph unicode="&#xe01c;" d="M 400-32q-81.25,0 -155.469,31.641t-127.734,85.156t-85.156,127.734t-31.641,155.469t 31.641,155.469t 85.156,127.734t 127.734,85.156t 155.469,31.641t 155.469-31.641t 127.734-85.156t 85.156-127.734t 31.641-155.469t-31.641-155.469t-85.156-127.734t-127.734-85.156t-155.469-31.641zM 400,668q-81.25,0 -150.391-40.234t-109.375-109.375t-40.234-150.391t 40.234-150.391
t 109.375-109.375t 150.391-40.234t 150.391,40.234t 109.375,109.375t 40.234,150.391t-40.234,150.391t-109.375,109.375t-150.391,40.234zM 536.719,231.281q-13.281-13.281 -32.031-13.281t-32.031,13.281l-73.438,73.438l-72.656-73.438q-13.281-13.281 -32.031-13.281t-32.031,13.281t-13.281,32.031t 13.281,32.031l 72.656,73.438l-72.656,72.656q-13.281,13.281 -13.281,32.031t 13.281,32.031t 32.031,13.281t 32.031-13.281l 72.656-73.438l 73.438,73.438q 13.281,13.281 32.031,13.281t 32.031-13.281t 13.281-32.031
t-13.281-32.031l-73.438-72.656l 73.438-73.438q 13.281-13.281 13.281-32.031t-13.281-32.031z" data-tags="uniF470" />
<glyph unicode="&#xe01d;" d="M 400-32q-108.594,0 -200.781,53.516t-145.703,145.703t-53.516,200.781t 53.516,200.781t 145.703,145.703t 200.781,53.516t 200.781-53.516t 145.703-145.703t 53.516-200.781t-53.516-200.781t-145.703-145.703t-200.781-53.516zM 400,668q-81.25,0 -150.391-40.234t-109.375-109.375t-40.234-150.391t 40.234-150.391t 109.375-109.375t 150.391-40.234t 150.391,40.234t 109.375,109.375
t 40.234,150.391t-40.234,150.391t-109.375,109.375t-150.391,40.234zM 398.438,253.156q-3.906-14.063 -11.719-21.875q-15.625-15.625 -38.281-12.5q-21.875-1.563 -35.938,12.5q-7.813,7.813 -10.938,21.094l-89.063,89.063q-13.281,13.281 -13.281,32.031t 13.281,32.031t 32.031,13.281t 32.031-13.281l 72.656-72.656l 173.438,172.656q 13.281,13.281 32.031,13.281t 32.031-13.281t 13.281-32.031t-13.281-32.031z" data-tags="uniF471" />
<glyph unicode="&#xe01e;" d="M 400-32q-108.594,0 -200.781,53.516t-145.703,145.703t-53.516,200.781t 53.516,200.781t 145.703,145.703t 200.781,53.516t 200.781-53.516t 145.703-145.703t 53.516-200.781t-53.516-200.781t-145.703-145.703t-200.781-53.516zM 600,418l-278.906,0 l 64.063,64.063q 14.844,14.844 14.844,35.938t-14.844,35.938t-35.938,14.844t-35.938-14.844l-149.219-149.219q-6.25-6.25 -10.156-17.188q0-0.781 -1.563-4.688l-0.391-1.172
t-0.391-1.953q0-1.563 -0.781-3.906l0-1.563 l0-1.563 q-3.125-25 13.281-41.406l 149.219-149.219q 14.844-14.844 35.938-14.844t 35.938,14.844t 14.844,35.938t-14.844,35.938l-64.063,64.063l 278.906,0 q 20.313,0 35.156,14.844t 14.844,35.156t-14.453,35.156t-35.547,14.844z" data-tags="uniF472" />
<glyph unicode="&#xe01f;" d="M 400-32q-108.594,0 -200.781,53.516t-145.703,145.703t-53.516,200.781t 53.516,200.781t 145.703,145.703t 200.781,53.516t 200.781-53.516t 145.703-145.703t 53.516-200.781t-53.516-200.781t-145.703-145.703t-200.781-53.516zM 649.219,372.687l0,1.563 l0,1.563 q0,2.344 -0.781,3.906q0,0.781 -0.391,1.953t-0.781,1.563t-0.781,1.953t-0.391,2.344q-3.906,10.938 -10.156,17.188l-149.219,149.219q-14.844,14.844 -35.938,14.844t-35.938-14.844t-14.844-35.938
t 14.844-35.938l 64.063-64.063l-278.906,0 q-21.094,0 -35.547-14.844t-14.453-35.156t 14.453-35.156t 35.547-14.844l 278.906,0 l-64.063-64.063q-14.844-14.844 -14.844-35.938t 14.844-35.938t 35.938-14.844t 35.938,14.844l 149.219,149.219q 16.406,16.406 13.281,41.406z" data-tags="uniF473" />
<glyph unicode="&#xe020;" d="M 400-32q-108.594,0 -200.781,53.516t-145.703,145.703t-53.516,200.781t 53.516,200.781t 145.703,145.703t 200.781,53.516t 200.781-53.516t 145.703-145.703t 53.516-200.781t-53.516-200.781t-145.703-145.703t-200.781-53.516zM 585.156,454.719l-148.438,148.438q-17.188,16.406 -42.188,13.281l-1.172,0 l-1.172,0 q-2.344,0 -4.688-0.781l-1.172-0.391t-1.953-0.391l-1.563-0.781t-2.344-0.781q-11.719-3.906 -17.969-10.156
l-148.438-148.438q-14.844-14.844 -14.844-35.938t 14.844-35.938t 35.938-14.844t 35.938,14.844l 64.063,63.281l0-278.125 q0-21.094 14.453-35.547t 35.156-14.453t 35.156,14.453t 14.453,35.547l0,278.125 l 64.063-63.281q 14.844-14.844 35.938-14.844t 35.938,14.844t 14.844,35.938t-14.844,35.938z" data-tags="uniF474" />
<glyph unicode="&#xe021;" d="M 400-32q-108.594,0 -200.781,53.516t-145.703,145.703t-53.516,200.781t 53.516,200.781t 145.703,145.703t 200.781,53.516t 200.781-53.516t 145.703-145.703t 53.516-200.781t-53.516-200.781t-145.703-145.703t-200.781-53.516zM 585.156,353.156q-14.844,14.844 -35.938,14.844t-35.938-14.844l-64.063-63.281l0,278.125 q0,21.094 -14.453,35.547t-35.156,14.453t-35.156-14.453t-14.453-35.547l0-278.125 l-64.063,63.281
q-14.844,14.844 -35.938,14.844t-35.938-14.844t-14.844-35.938t 14.844-35.938l 148.438-148.438q 6.25-6.25 17.969-10.156q 0.781,0 2.344-0.781q 1.563,0 1.953-0.391t 1.563-0.781l 1.172-0.391q 2.344-0.781 4.688-0.781l 1.172,0 l 1.172,0 q 25-3.125 42.188,13.281l 148.438,148.438q 14.844,14.844 14.844,35.938t-14.844,35.938z" data-tags="uniF475" />
<glyph unicode="&#xe022;" d="M 400-32q-108.594,0 -200.781,53.516t-145.703,145.703t-53.516,200.781t 53.516,200.781t 145.703,145.703t 200.781,53.516t 200.781-53.516t 145.703-145.703t 53.516-200.781t-53.516-200.781t-145.703-145.703t-200.781-53.516zM 600,393q0,10.156 -7.422,17.578t-17.578,7.422l-125,0 l0,125 q0,10.156 -7.422,17.578t-17.578,7.422l-50,0 q-10.156,0 -17.578-7.422t-7.422-17.578l0-125 
l-125,0 q-10.156,0 -17.578-7.422t-7.422-17.578l0-50 q0-10.156 7.422-17.578t 17.578-7.422l 125,0 l0-125 q0-10.156 7.422-17.578t 17.578-7.422l 50,0 q 10.156,0 17.578,7.422t 7.422,17.578l0,125 l 125,0 q 10.156,0 17.578,7.422t 7.422,17.578l0,50 z" data-tags="uniF476" />
<glyph unicode="&#xe023;" d="M 400-32q-81.25,0 -155.469,31.641t-127.734,85.156t-85.156,127.734t-31.641,155.469t 31.641,155.469t 85.156,127.734t 127.734,85.156t 155.469,31.641t 155.469-31.641t 127.734-85.156t 85.156-127.734t 31.641-155.469t-31.641-155.469t-85.156-127.734t-127.734-85.156t-155.469-31.641zM 592.969,491.437q 7.031,7.813 7.031,17.969t-7.031,17.188l-34.375,34.375q-7.813,7.031 -17.578,7.031t-17.578-7.031l-123.438-124.219
l-124.219,124.219q-7.031,7.031 -17.188,7.031t-17.188-7.031l-34.375-34.375q-7.031-7.031 -7.031-17.188t 7.031-17.969l 123.438-123.438l-123.438-123.438q-7.031-7.813 -7.031-17.969t 7.031-17.188l 34.375-34.375q 7.031-7.031 17.188-7.031t 17.188,7.031l 124.219,124.219l 123.438-124.219q 7.813-7.031 17.578-7.031t 17.578,7.031l 34.375,34.375q 7.031,7.031 7.031,17.188t-7.031,17.969l-124.219,123.438z" data-tags="uniF478" />
<glyph unicode="&#xe024;" d="M 400-32q-108.594,0 -200.781,53.516t-145.703,145.703t-53.516,200.781t 53.516,200.781t 145.703,145.703t 200.781,53.516t 200.781-53.516t 145.703-145.703t 53.516-200.781t-53.516-200.781t-145.703-145.703t-200.781-53.516zM 600,393q0,10.156 -7.422,17.578t-17.578,7.422l-350,0 q-10.156,0 -17.578-7.422t-7.422-17.578l0-50 q0-10.156 7.422-17.578t 17.578-7.422l 350,0 
q 10.156,0 17.578,7.422t 7.422,17.578l0,50 z" data-tags="uniF477" />
<glyph unicode="&#xe025;" d="M 400-32q-108.594,0 -200.781,53.516t-145.703,145.703t-53.516,200.781t 53.516,200.781t 145.703,145.703t 200.781,53.516t 200.781-53.516t 145.703-145.703t 53.516-200.781t-53.516-200.781t-145.703-145.703t-200.781-53.516zM 425.781,657.062q-10.156,10.938 -25.391,10.938t-25.391-10.938l-267.188-269.531q-9.375-10.938 -6.641-15.234t 14.453-4.297l 184.375,0 l0-250 q0-21.094 14.844-35.547
t 35.156-14.453l 100.781,0 q 20.313,0 35.156,14.453t 14.844,35.547l0,250 l 183.594,0 q 11.719,0 14.844,4.297t-6.25,15.234z" data-tags="uniF47A" />
<glyph unicode="&#xe026;" d="M 400-32q-108.594,0 -200.781,53.516t-145.703,145.703t-53.516,200.781t 53.516,200.781t 145.703,145.703t 200.781,53.516t 200.781-53.516t 145.703-145.703t 53.516-200.781t-53.516-200.781t-145.703-145.703t-200.781-53.516zM 684.375,368l-183.594,0 l0,250 q0,21.094 -14.844,35.547t-35.156,14.453l-100.781,0 q-20.313,0 -35.156-14.453t-14.844-35.547l0-250 l-184.375,0 q-11.719,0 -14.453-4.688t 6.641-14.844
l 267.188-269.531q 10.156-10.938 25.391-10.938t 25.391,10.938l 267.188,269.531q 9.375,10.156 6.25,14.844t-14.844,4.688z" data-tags="uniF47B" />
<glyph unicode="&#xe027;" d="M 400-32q-108.594,0 -200.781,53.516t-145.703,145.703t-53.516,200.781t 53.516,200.781t 145.703,145.703t 200.781,53.516t 200.781-53.516t 145.703-145.703t 53.516-200.781t-53.516-200.781t-145.703-145.703t-200.781-53.516zM 642.969,501.594l-34.375,34.375q-7.813,7.031 -17.578,7.031t-17.578-7.031l-235.938-235.938l-111.719,110.938q-7.031,7.031 -17.188,7.031t-17.188-7.031l-34.375-34.375q-7.031-7.031 -7.031-17.188t 7.031-17.969
l 118.75-117.969q 0.781-8.594 6.25-14.063l 34.375-34.375q 8.594-8.594 21.094-6.25q 12.5-2.344 21.094,6.25l 34.375,34.375q 4.688,5.469 6.25,14.063l 243.75,243.75q 7.031,7.031 7.031,17.188t-7.031,17.188z" data-tags="uniF479" />
<glyph unicode="&#xe028;" d="M 785.156-16.375q-14.844-14.844 -35.156-15.625t-34.375,13.281l-501.563,502.344q-14.063,14.063 -13.281,34.375t 15.625,35.156t 35.156,15.625t 34.375-13.281l 501.563-502.344q 14.063-14.063 13.281-34.375t-15.625-35.156zM 738.281,568.781l-62.5,35.938l-61.719-35.938l 13.281,72.656l-51.563,50.781l 70.313,9.375l 29.688,67.188l 30.469-67.188l 70.313-9.375l-51.563-50.781zM 114.844,582.062l-100.781,101.563q-14.063,14.063 -13.281,34.375t 15.625,35.156t 35.156,15.625t 34.375-13.281l 100.781-101.563q 14.063-14.063 13.281-34.375
t-15.625-35.156t-35.156-15.625t-34.375,13.281zM 95.313,401.594l 30.469,67.188l 29.688-67.188l 70.313-9.375l-51.563-50.781l 13.281-73.438l-61.719,35.938l-62.5-35.938l 13.281,73.438l-50.781,50.781zM 295.313,100.812l 30.469,67.188l 29.688-67.188l 70.313-8.594l-51.563-51.563l 13.281-72.656l-61.719,35.938l-61.719-35.938l 13.281,72.656l-51.563,51.563z" data-tags="wizard" />
<glyph unicode="&#xe029;" d="M 784.375-16.375q-14.844-14.844 -35.156-15.625t-34.375,13.281l-150.781,151.563q-14.063,14.063 -13.281,34.375t 15.625,35.156t 35.156,15.625t 34.375-13.281l 150.781-151.563q 14.063-14.063 13.281-34.375t-15.625-35.156zM 450,568l0-178.125 l-150.781,151.563l 25.781,25.781l-69.531,9.375l-19.531,41.406l 164.063,0 q 21.094,0 35.547-14.453t 14.453-35.547zM 200,618l 14.063,0 l-18.75-41.406l-45.313-6.25q 0.781,20.313 15.234,33.984t 34.766,13.672zM 200,318
q-20.313,0 -35.156,14.844t-14.844,35.156l0,174.219 l 26.563-25.781l-13.281-73.438l 57.031,33.594l 157.813-158.594l-178.125,0 zM 500,618q0,21.094 -14.453,35.938t-35.547,14.844l-300,0 q-20.313,0 -35.156-14.844t-14.844-35.938l0-300 q0-20.313 14.844-35.156t 35.156-14.844l 278.125,0 l 100-100l-478.125,0 q-20.313,0 -35.156,14.844t-14.844,35.156l0,500.781 q0,20.313 14.844,35.156t 35.156,14.844l 500,0 q 21.094,0 35.547-14.844t 14.453-35.156l0-478.906 l-100,100l0,278.125 z" data-tags="backupwizard" />
<glyph unicode="&#xe02a;" d="M 778.125,593l-249.219,0 l 256.25-52.344q 9.375-2.344 14.453-11.328t 2.734-18.75t-11.328-14.844t-18.359-1.953l-172.656,34.375l 189.844-88.281q 9.375-5.469 12.109-15.625t-2.734-19.141t-15.625-11.719t-19.531,2.734l-212.5,100l 251.563-403.125q0-21.094 -14.844-35.547t-35.156-14.453l-700,0 q-21.094,0 -35.547,14.453t-14.453,35.547l 211.719,341.406l-138.281-85.156q-17.969-10.156 -37.109-4.688t-29.297,23.438
t-5.078,37.891t 23.047,30.078l 302.344,185.156l 35.938,57.813q 14.844,14.844 35.547,14.844t 34.766-14.844l 22.656-35.938l 318.75,0 q 10.156,0 17.578-7.422t 7.422-17.969t-7.422-17.578t-17.578-7.031zM 403.125,618l-325-525l 650,0 z" data-tags="cgi" />
<glyph unicode="&#xe02b;" d="M 750-32l-50,0 l-600,0 l-50,0 q-20.313,0 -35.156,14.844t-14.844,35.156l0,150 l0,500 q0,41.406 29.297,70.703t 70.703,29.297l 600,0 q 41.406,0 70.703-29.297t 29.297-70.703l0-500 l0-100 l0-50 q0-20.313 -14.453-35.156t-35.547-14.844zM 700,568q0,41.406 -29.297,70.703t-70.703,29.297l-400,0 q-41.406,0 -70.703-29.297t-29.297-70.703l0-300 q0-21.094 14.453-35.547t 35.547-14.453l 25,0 
q 15.625,0 30.078-6.641t 19.922-18.359q 3.906-13.281 12.891-51.563t 12.109-48.438q 6.25-15.625 18.359-20.313t 35.547-4.688l 194.531,0 q 22.656,0 33.984,4.688t 17.578,20.313q 14.063,70.313 25,100q 10.156,25 50,25l 25,0 q 20.313,0 35.156,14.453t 14.844,35.547l0,300 zM 425,228.937q-10.156-10.938 -25-10.938t-25.781,10.938l-167.188,169.531q-9.375,10.156 -6.25,14.844t 14.844,4.688l 84.375,0 l0,100 q0,21.094 14.453,35.547t 35.547,14.453l 100,0 
q 21.094,0 35.547-14.453t 14.453-35.547l0-100 l 83.594,0 q 11.719,0 14.844-4.688t-6.25-14.844z" data-tags="inbox" />
<glyph unicode="&#xe02c;" d="M 799.219,501.594q-0.781-11.719 -7.422-22.656t-16.797-10.938l-257.813,0 q-18.75-0.781 -17.969,26.563l 98.438,98.438q-85.156,75 -197.656,75q-81.25,0 -150.391-40.234t-109.375-109.375t-40.234-150.781t 40.234-150.391t 109.375-108.984t 150.391-40.234q 68.75,0 129.297,29.297t 102.734,80.859l 78.906-61.719q-56.25-69.531 -137.5-108.984t-173.438-39.453q-81.25,0 -155.469,31.641t-127.734,85.156
t-85.156,127.734t-31.641,155.469t 31.641,155.078t 85.156,127.344t 127.734,85.156t 155.469,31.641q 75.781,0 144.922-27.344t 123.828-76.563l 104.688,104.688q 27.344,0.781 26.563-17.969z" data-tags="redo" />
<glyph unicode="&#xe02d;" d="M 774.219-32l-104.688,104.688q-53.906-49.219 -123.047-76.953t-145.703-27.734q-124.219,0 -225.391,69.922t-145.703,181.641l 92.969,37.5q 33.594-84.375 108.984-136.719t 169.141-52.344q 113.281,0 198.438,75.781l-98.438,99.219q-0.781,10.938 6.641,18.359t 18.359,6.641l 241.406,0 q 10.938,0 21.484-10.547t 11.328-21.484l 0.781-250q 0.781-18.75 -26.563-17.969zM 400.781,668q-113.281,0 -198.438-75l 98.438-99.219
q 0.781-10.938 -6.641-18.359t-18.359-7.422l-241.406,0 q-10.938,0.781 -21.484,11.328t-11.328,21.484l-0.781,250q-0.781,18.75 26.563,17.969l 104.688-104.688q 53.906,49.219 123.047,76.563t 145.703,27.344q 124.219,0 225.391-69.531t 145.703-182.031l-92.969-36.719q-33.594,84.375 -108.984,136.328t-169.141,51.953z" data-tags="refresh" />
<glyph unicode="&#xe02e;" d="M 785.156-17.156q-14.844-14.844 -35.547-14.844t-35.547,14.844l-154.688,154.688q-93.75-69.531 -209.375-69.531q-71.094,0 -135.938,27.734t-111.719,74.609t-74.609,111.328t-27.734,135.938t 27.734,136.328t 74.609,111.328t 111.719,74.219t 135.938,27.734t 135.938-27.734t 111.719-74.219t 74.609-111.328t 27.734-135.938q0-116.406 -69.531-209.375l 154.688-154.688q 14.844-14.844 14.844-35.547t-14.844-35.547zM 350,667.219
q-67.969,0 -125.391-33.203t-91.016-91.016t-33.594-125.391t 33.594-125.391t 91.016-91.016t 125.391-33.203t 125.391,33.203t 91.016,91.016t 33.594,125.391t-33.594,125.391t-91.016,91.016t-125.391,33.203z" data-tags="search" />
<glyph unicode="&#xe02f;" d="M 600,418q 20.313,0 35.156-14.453t 14.844-35.547l0-50 q0-21.094 -14.844-35.547t-35.156-14.453l-150,0 l0-249.219 l0-0.781 q0-20.313 -14.844-35.156t-35.156-14.844l-50,0 q-21.094,0 -35.547,14.844t-14.453,35.156l0,250 l-50,0 q-21.094,0 -35.547,14.453t-14.453,35.547l0,50 q0,21.094 14.453,35.547t 35.547,14.453l 50,0 l0,150 q0,82.813 58.594,141.406t 141.406,58.594l 100,0 q 21.094,0 35.547-14.453t 14.453-35.547l0-50 
q0-21.094 -14.453-35.547t-35.547-14.453l-100,0 q-21.094,0 -35.547-14.453t-14.453-35.547l0-150 l 150,0 z" data-tags="facebook" />
<glyph unicode="&#xe030;" d="M 700-32l-600,0 q-41.406,0 -70.703,29.297t-29.297,70.703l0,600 q0,41.406 29.297,70.703t 70.703,29.297l 600,0 q 41.406,0 70.703-29.297t 29.297-70.703l0-600 q0-41.406 -29.297-70.703t-70.703-29.297zM 100,118.391q0-20.703 14.844-35.547t 35.156-14.844l 200,0 l0,100 l-200,0 q-20.313,0 -35.156-14.453t-14.844-35.156zM 650,384.406q0,14.063 -14.453,23.828t-35.547,9.766l-100,0 l0,100 
q0,21.094 14.844,35.547t 35.156,14.453l 50,0 q 21.094,0 35.547,9.766t 14.453,23.828l0,32.813 q0,14.063 -14.453,23.828t-35.547,9.766l-50,0 q-82.813,0 -116.406-33.594t-33.594-116.406l0-100 l-50,0 q-20.313,0 -35.156-9.766t-14.844-23.828l0-32.813 q0-14.063 14.844-23.828t 35.156-9.766l 50,0 l0-200 q0-20.313 9.766-35.156t 23.828-14.844l 32.813,0 q 14.063,0 23.828,14.844t 9.766,35.156l0,0.781 l0,199.219 l 100,0 q 21.094,0 35.547,9.766
t 14.453,23.828l0,32.813 zM 650,168l-100,0 l0-100 l 100,0 q 21.094,0 35.547,14.844t 14.453,35.547t-14.844,35.156t-35.156,14.453z" data-tags="facebook2" />
<glyph unicode="&#xe031;" d="M 800,568q-71.094,0 -94.531-3.125q 45.313,27.344 69.531,103.125q-7.031-4.688 -23.047-14.844t-25.781-16.016t-24.609-12.109t-28.125-8.594q-48.438,51.563 -119.531,51.563q-71.875,0 -112.891-30.078t-41.016-94.922q0-3.125 -0.781-21.094t-0.781-33.203t 1.563-20.703q-104.688,5.469 -185.156,41.406t-139.844,108.594q-25-42.969 -25-75q0-44.531 12.5-73.828t 43.75-50.391q-31.25-0.781 -56.25-0.781
q0-118.75 114.063-141.406q-21.094-6.25 -43.75-6.25q-15.625,0 -30.469,3.125q 14.844-47.656 59.766-76.172t 100.391-29.297q-17.969-17.969 -42.188-28.906t-55.469-15.234t-50.781-5.078t-51.563-0.781q-3.125,0 -22.656-1.172t-27.344-0.391q 21.094-40.625 86.328-69.531t 165.234-28.906q 87.5,0 162.109,28.516t 126.563,76.172t 88.672,109.375t 53.906,128.125t 17.188,132.813q0,2.344 7.422,4.297t 19.141,5.859t 24.609,10.547t 26.563,20.703
t 22.266,33.594z" data-tags="twitter" />
<glyph unicode="&#xe032;" d="M 800,368q0-86.719 -20.313-146.094t-67.188-100.391t-123.438-59.766t-189.063-18.75t-189.063,18.75t-123.438,59.766t-67.188,100.391t-20.313,146.094q0,116.406 60.938,180.469q-10.938,79.688 -10.938,119.531q0,10.156 7.422,17.578t 17.578,7.422q 9.375,0 65.625-25.781t 76.563-40.625q 76.563,16.406 182.813,16.406q 92.188,0 163.281-12.5q 24.219,15.625 76.172,39.063t 60.547,23.438q 10.156,0 17.578-7.422t 7.422-17.578
q0-27.344 -7.813-99.219q 82.813-64.844 82.813-200.781zM 400,493q-15.625,0 -45.313,0.781q-35.938,1.563 -68.75-0.391t-61.328-5.859t-51.563-17.188t-39.063-34.375t-25-57.031t-8.984-85.938q0-95.313 76.172-147.656t 223.828-52.344t 223.828,52.344t 76.172,147.656q0,50 -8.984,85.938t-25,57.031t-39.063,34.375t-51.563,17.188t-61.328,5.859t-68.75,0.391q-29.688-0.781 -45.313-0.781zM 550,243q-21.094,0 -35.547,21.875
t-14.453,53.125t 14.844,53.125t 35.156,21.875t 35.156-21.875t 14.844-53.125t-14.453-53.125t-35.547-21.875zM 425,143l-50,0 q-10.156,0 -17.578,7.422t-7.422,17.578t 7.422,17.578t 17.578,7.422l 50,0 q 10.156,0 17.578-7.422t 7.422-17.578t-7.422-17.578t-17.578-7.422zM 250.391,243q-20.703,0 -35.547,21.875t-14.844,53.125t 14.844,53.125t 35.547,21.875t 35.156-21.875t 14.453-53.125t-14.453-53.125t-35.156-21.875z" data-tags="github" />
<glyph unicode="&#xe033;" d="M 400,317.219l-350.781,350.781l 0.781,0 l 700,0 l 0.781,0 zM 5.469,95.344q-5.469,10.938 -5.469,22.656l0,500 q0,11.719 5.469,22.656l 273.438-272.656zM 369.531,276.594q 4.688-3.906 12.109-6.25t 12.891-2.344l 5.469,0 q 20.313-0.781 30.469,8.594l 55.469,56.25l 264.844-264.844l-0.781,0 l-700,0 l-0.781,0 l 264.844,264.844zM 794.531,640.656q 5.469-10.938 5.469-22.656l0-500 q0-11.719 -5.469-22.656l-273.438,272.656z" data-tags="email" />
<glyph unicode="&#xe034;" d="M 400,368l-400,202.344l0,47.656 q0,21.094 14.844,35.547t 35.156,14.453l 700,0 q 20.313,0 35.156-14.453t 14.844-35.547l0-47.656 zM 375,318l 50,0 l 375,194.531l0-394.531 q0-20.313 -14.844-35.156t-35.156-14.844l-700,0 q-20.313,0 -35.156,14.844t-14.844,35.156l0,394.531 z" data-tags="email2" />
<glyph unicode="&#xe035;" d="M 750,68l-700,0 q-20.313,0 -35.156,14.844t-14.844,35.156l0,500 q0,21.094 14.453,35.547t 35.547,14.453l 700,0 q 21.094,0 35.547-14.453t 14.453-35.547l0-500 q0-20.313 -14.453-35.156t-35.547-14.844zM 750,593q0,10.156 -7.422,17.578t-17.578,7.422l-50,0 q-15.625,0 -24.609-1.172t-23.438-8.594t-29.297-22.266l-197.656-197.656l-197.656,197.656q-14.844,14.844 -29.297,22.266t-23.047,8.594
t-25,1.172l-50,0 q-10.156,0 -17.578-7.422t-7.422-17.578l0-450 q0-10.156 7.422-17.578t 17.578-7.422l 50,0 q 10.156,0 17.578,7.422t 7.422,17.578l0,25.781 l 164.844,164.063l 57.813-57.813q 11.719-11.719 27.344-5.469q 15.625-6.25 27.344,5.469l 57.813,57.813l 164.844-164.063l0-25.781 q0-10.156 7.422-17.578t 17.578-7.422l 50,0 q 10.156,0 17.578,7.422t 7.422,17.578l0,450 zM 650,239.094l-129.688,129.688l 129.688,128.906l0-258.594 zM 150,497.687
l 129.688-128.906l-129.688-129.688l0,258.594 z" data-tags="gmail" />
<glyph unicode="&#xe036;" d="M 725-32q-31.25,0 -53.125,21.875t-21.875,53.125q0,117.188 -45.703,223.438t-122.656,183.203t-183.203,122.656t-223.438,45.703q-31.25,0 -53.125,21.875t-21.875,53.125t 21.875,53.125t 53.125,21.875q 98.438,0 192.578-26.172t 173.438-72.656t 146.484-113.672t 113.672-146.484t 72.656-173.438t 26.172-192.578q0-31.25 -21.875-53.125t-53.125-21.875zM 75,468q 86.719,0 165.234-33.594t 135.547-90.625t 90.625-135.547
t 33.594-165.234q0-31.25 -21.875-53.125t-53.125-21.875t-53.125,21.875t-21.875,53.125q0,117.969 -78.516,196.484t-196.484,78.516q-31.25,0 -53.125,21.875t-21.875,53.125t 21.875,53.125t 53.125,21.875zM 100,168q 41.406,0 70.703-29.297t 29.297-70.703t-29.297-70.703t-70.703-29.297t-70.703,29.297t-29.297,70.703t 29.297,70.703t 70.703,29.297z" data-tags="rss" />
<glyph unicode="&#x20;" horiz-adv-x="400" />
</font>
</defs>
</svg>
